HIERARCHY
ROOT Hips
{
    OFFSET 0.000000 0.000000 0.000000
    CHANNELS 6 Xposition Yposition Zposition Zrotation Xrotation Yrotation
    JOINT Spine
    {
        OFFSET 0.000002 7.164412 0.000002
        CHANNELS 3 Zrotation Xrotation Yrotation
        JOINT Spine1
        {
            OFFSET -0.000001 20.126801 -0.000002
            CHANNELS 3 Zrotation Xrotation Yrotation
            JOINT Neck
            {
                OFFSET 0.000000 21.094069 0.000000
                CHANNELS 3 Zrotation Xrotation Yrotation
                JOINT Head
                {
                    OFFSET -0.000001 12.838277 1.776080
                    CHANNELS 3 Zrotation Xrotation Yrotation
                    End Site
                    {
                        OFFSET 0.000000 17.760757 0.000000
                    }
                }
            }
            JOINT LeftShoulder
            {
                OFFSET 3.550527 15.465700 -0.908803
                CHANNELS 3 Zrotation Xrotation Yrotation
                JOINT LeftArm
                {
                    OFFSET 12.513296 -0.000006 -0.000002
                    CHANNELS 3 Zrotation Xrotation Yrotation
                    JOINT LeftForeArm
                    {
                        OFFSET 24.225996 -0.000003 0.000001
                        CHANNELS 3 Zrotation Xrotation Yrotation
                        JOINT LeftHand
                        {
                            OFFSET 20.711399 -0.000005 -0.000004
                            CHANNELS 3 Zrotation Xrotation Yrotation
                            JOINT LeftHandThumb1
                            {
                                OFFSET 2.121969 -2.411331 3.375859
                                CHANNELS 3 Zrotation Xrotation Yrotation
                                JOINT LeftHandThumb2
                                {
                                    OFFSET 2.803208 0.000003 0.000001
                                    CHANNELS 3 Zrotation Xrotation Yrotation
                                    JOINT LeftHandThumb3
                                    {
                                        OFFSET 2.395929 0.000004 -0.000003
                                        CHANNELS 3 Zrotation Xrotation Yrotation
                                        End Site
                                        {
                                            OFFSET 2.127676 0.000000 0.000000
                                        }
                                    }
                                }
                            }
                            JOINT LeftHandIndex1
                            {
                                OFFSET 8.680775 0.000005 3.375860
                                CHANNELS 3 Zrotation Xrotation Yrotation
                                JOINT LeftHandIndex2
                                {
                                    OFFSET 4.218178 -0.000000 -0.000000
                                    CHANNELS 3 Zrotation Xrotation Yrotation
                                    JOINT LeftHandIndex3
                                    {
                                        OFFSET 2.109086 -0.000004 0.000002
                                        CHANNELS 3 Zrotation Xrotation Yrotation
                                        End Site
                                        {
                                            OFFSET 1.872952 0.000000 0.000000
                                        }
                                    }
                                }
                            }
                            JOINT LeftHandMiddle1
                            {
                                OFFSET 8.680778 -0.000002 1.118860
                                CHANNELS 3 Zrotation Xrotation Yrotation
                                JOINT LeftHandMiddle2
                                {
                                    OFFSET 4.640003 -0.000004 -0.000001
                                    CHANNELS 3 Zrotation Xrotation Yrotation
                                    JOINT LeftHandMiddle3
                                    {
                                        OFFSET 2.530911 0.000002 -0.000001
                                        CHANNELS 3 Zrotation Xrotation Yrotation
                                        End Site
                                        {
                                            OFFSET 2.247544 0.000000 0.000000
                                        }
                                    }
                                }
                            }
                            JOINT LeftHandRing1
                            {
                                OFFSET 8.198517 0.000004 -1.118860
                                CHANNELS 3 Zrotation Xrotation Yrotation
                                JOINT LeftHandRing2
                                {
                                    OFFSET 4.218183 -0.000002 -0.000002
                                    CHANNELS 3 Zrotation Xrotation Yrotation
                                    JOINT LeftHandRing3
                                    {
                                        OFFSET 2.109094 0.000005 -0.000000
                                        CHANNELS 3 Zrotation Xrotation Yrotation
                                        End Site
                                        {
                                            OFFSET 1.872952 0.000000 0.000000
                                        }
                                    }
                                }
                            }
                            JOINT LeftHandPinky1
                            {
                                OFFSET 7.716254 0.000002 -3.375863
                                CHANNELS 3 Zrotation Xrotation Yrotation
                                JOINT LeftHandPinky2
                                {
                                    OFFSET 3.374536 0.000002 0.000001
                                    CHANNELS 3 Zrotation Xrotation Yrotation
                                    JOINT LeftHandPinky3
                                    {
                                        OFFSET 1.687274 -0.000002 -0.000004
                                        CHANNELS 3 Zrotation Xrotation Yrotation
                                        End Site
                                        {
                                            OFFSET 1.498360 0.000000 0.000000
                                        }
                                    }
                                }
                            }
                        }
                    }
                }
            }
            JOINT RightShoulder
            {
                OFFSET -3.550529 15.465699 -0.908801
                CHANNELS 3 Zrotation Xrotation Yrotation
                JOINT RightArm
                {
                    OFFSET -12.513299 -0.000001 -0.000000
                    CHANNELS 3 Zrotation Xrotation Yrotation
                    JOINT RightForeArm
                    {
                        OFFSET -24.226000 -0.000003 -0.000001
                        CHANNELS 3 Zrotation Xrotation Yrotation
                        JOINT RightHand
                        {
                            OFFSET -20.711397 -0.000003 -0.000002
                            CHANNELS 3 Zrotation Xrotation Yrotation
                            JOINT RightHandThumb1
                            {
                                OFFSET -2.121970 -2.411331 3.375859
                                CHANNELS 3 Zrotation Xrotation Yrotation
                                JOINT RightHandThumb2
                                {
                                    OFFSET -2.803209 -0.000004 0.000004
                                    CHANNELS 3 Zrotation Xrotation Yrotation
                                    JOINT RightHandThumb3
                                    {
                                        OFFSET -2.395928 0.000004 -0.000003
                                        CHANNELS 3 Zrotation Xrotation Yrotation
                                        End Site
                                        {
                                            OFFSET -2.127676 0.000000 0.000000
                                        }
                                    }
                                }
                            }
                            JOINT RightHandIndex1
                            {
                                OFFSET -8.680779 0.000001 3.375859
                                CHANNELS 3 Zrotation Xrotation Yrotation
                                JOINT RightHandIndex2
                                {
                                    OFFSET -4.218179 0.000003 -0.000001
                                    CHANNELS 3 Zrotation Xrotation Yrotation
                                    JOINT RightHandIndex3
                                    {
                                        OFFSET -2.109090 -0.000002 0.000000
                                        CHANNELS 3 Zrotation Xrotation Yrotation
                                        End Site
                                        {
                                            OFFSET -1.872952 0.000000 0.000000
                                        }
                                    }
                                }
                            }
                            JOINT RightHandMiddle1
                            {
                                OFFSET -8.680779 -0.000002 1.118859
                                CHANNELS 3 Zrotation Xrotation Yrotation
                                JOINT RightHandMiddle2
                                {
                                    OFFSET -4.639998 0.000003 -0.000001
                                    CHANNELS 3 Zrotation Xrotation Yrotation
                                    JOINT RightHandMiddle3
                                    {
                                        OFFSET -2.530910 -0.000000 -0.000000
                                        CHANNELS 3 Zrotation Xrotation Yrotation
                                        End Site
                                        {
                                            OFFSET -2.247544 0.000000 0.000000
                                        }
                                    }
                                }
                            }
                            JOINT RightHandRing1
                            {
                                OFFSET -8.198519 -0.000004 -1.118859
                                CHANNELS 3 Zrotation Xrotation Yrotation
                                JOINT RightHandRing2
                                {
                                    OFFSET -4.218180 -0.000005 0.000000
                                    CHANNELS 3 Zrotation Xrotation Yrotation
                                    JOINT RightHandRing3
                                    {
                                        OFFSET -2.109090 0.000002 0.000002
                                        CHANNELS 3 Zrotation Xrotation Yrotation
                                        End Site
                                        {
                                            OFFSET -1.872952 0.000000 0.000000
                                        }
                                    }
                                }
                            }
                            JOINT RightHandPinky1
                            {
                                OFFSET -7.716249 0.000004 -3.375858
                                CHANNELS 3 Zrotation Xrotation Yrotation
                                JOINT RightHandPinky2
                                {
                                    OFFSET -3.374539 0.000003 -0.000000
                                    CHANNELS 3 Zrotation Xrotation Yrotation
                                    JOINT RightHandPinky3
                                    {
                                        OFFSET -1.687270 -0.000004 -0.000001
                                        CHANNELS 3 Zrotation Xrotation Yrotation
                                        End Site
                                        {
                                            OFFSET -1.498360 0.000000 0.000000
                                        }
                                    }
                                }
                            }
                        }
                    }
                }
            }
        }
    }
    JOINT LeftUpLeg
    {
        OFFSET 8.880377 0.000003 0.000001
        CHANNELS 3 Zrotation Xrotation Yrotation
        JOINT LeftLeg
        {
            OFFSET -0.000000 -40.387413 0.000001
            CHANNELS 3 Zrotation Xrotation Yrotation
            JOINT LeftFoot
            {
                OFFSET -0.000000 -36.911304 0.000000
                CHANNELS 3 Zrotation Xrotation Yrotation
                JOINT LeftToeBase
                {
                    OFFSET 0.000003 -5.772240 13.320597
                    CHANNELS 3 Zrotation Xrotation Yrotation
                    End Site
                    {
                        OFFSET 0.000000 0.000000 3.552151
                    }
                }
            }
        }
    }
    JOINT RightUpLeg
    {
        OFFSET -8.880380 -0.000003 -0.000001
        CHANNELS 3 Zrotation Xrotation Yrotation
        JOINT RightLeg
        {
            OFFSET 0.000001 -40.387405 0.000000
            CHANNELS 3 Zrotation Xrotation Yrotation
            JOINT RightFoot
            {
                OFFSET -0.000001 -36.911304 -0.000001
                CHANNELS 3 Zrotation Xrotation Yrotation
                JOINT RightToeBase
                {
                    OFFSET 0.000000 -5.772241 13.320600
                    CHANNELS 3 Zrotation Xrotation Yrotation
                    End Site
                    {
                        OFFSET 0.000000 0.000000 3.552151
                    }
                }
            }
        }
    }
}
MOTION
Frames: 4
Frame Time: 0.013889
71.548218    81.564613    -49.160454    -4.127912    3.241683    -13.217731    2.095747    -18.850164    6.461838    -1.714704    12.833612    6.341549    2.889919    0.276909    -2.548499    2.995595    1.001373    -2.586726    1.364930    -2.413302    0.124566    -28.655645    3.764804    -19.707159    -6.180476    -9.922966    -32.145664    -15.133267    6.051047    2.263041    34.364407    31.727982    -45.658039    -15.147722    -1.395440    23.278013    -0.000000    0.000000    -0.000000    -12.265750    17.614733    -5.360585    -11.682330    0.000000    -0.000003    -11.682327    -0.000000    0.000004    -11.149281    8.832851    -2.828949    -11.015393    0.000002    -0.000002    -11.015401    -0.000004    0.000001    -10.811952    -8.842788    -3.589720    -10.681919    0.000005    0.000000    -10.681931    -0.000003    -0.000003    -10.868611    -17.697388    -7.156636    -10.348455    0.000002    -0.000007    -10.348457    0.000001    -0.000006    -0.290342    0.949846    7.323112    37.906883    17.953999    14.397920    0.286900    -12.131573    1.364952    18.215862    3.225983    -26.771223    -39.830021    26.846117    47.652725    15.077315    -1.365152    -23.279696    -0.000000    0.000000    -0.000000    12.721663    17.585634    5.304982    12.117855    -0.000000    0.000000    12.117863    -0.000002    0.000002    11.068151    8.835270    2.882540    10.935174    -0.000000    0.000002    10.935179    -0.000000    0.000002    10.469941    -8.852546    0.796100    10.343832    0.000001    0.000000    10.343832    0.000000    -0.000001    10.244010    -17.731125    1.484553    9.752486    -0.000000    0.000001    9.752483    -0.000000    0.000002    -2.647076    -27.994753    9.204552    0.000001    14.100451    -0.000000    -7.110092    23.240892    -4.799907    0.000000    7.318572    0.000001    10.342404    -0.778406    -19.956509    0.000002    13.795151    -0.000006    -2.861586    -14.124203    -4.831166    -0.000000    -2.206159    0.000004    
71.638939    81.569359    -49.330856    -4.107940    2.958013    -12.598684    2.168581    -18.516218    6.799759    -1.801816    12.814729    6.684723    2.471417    0.129584    -2.920079    3.018970    1.036716    -2.969895    1.144457    -2.422990    0.208762    -29.630932    1.596856    -18.931145    -6.037516    -9.816487    -31.813627    -14.033336    5.479955    2.183533    34.447174    31.656734    -45.696205    -15.239371    -1.434854    23.275747    -0.000000    0.000000    -0.000000    -12.649760    17.590282    -5.062851    -12.049168    0.000004    -0.000001    -12.049171    0.000000    -0.000001    -11.378186    8.825930    -2.703014    -11.241686    0.000001    0.000004    -11.241681    0.000005    -0.000003    -10.969797    -8.838171    -3.506159    -10.837945    -0.000002    -0.000001    -10.837945    -0.000000    0.000003    -10.958496    -17.692373    -6.968314    -10.434202    0.000001    0.000004    -10.434211    0.000000    0.000000    -0.358303    0.893730    7.458139    36.948750    18.358133    15.405395    0.366428    -11.938155    1.770871    17.385218    3.118600    -27.141045    -39.945812    26.707527    47.775135    14.996162    -1.330245    -23.281618    -0.000000    0.000000    -0.000000    12.904903    17.573627    5.037901    12.292970    0.000001    -0.000000    12.292958    -0.000003    0.000002    11.141356    8.833089    2.765425    11.007559    0.000001    -0.000000    11.007549    -0.000001    0.000000    10.491200    -8.851953    0.760856    10.364861    -0.000000    0.000000    10.364853    0.000000    -0.000001    10.212181    -17.732796    1.397833    9.722156    0.000001    -0.000001    9.722152    -0.000000    -0.000001    -2.880225    -28.085709    8.985291    0.000000    14.359090    0.000000    -7.948934    23.870724    -4.816472    0.000003    7.544028    0.000002    10.224736    -0.871436    -20.229845    -0.000002    14.141069    0.000004    -3.254427    -14.225045    -5.374877    0.000000    -2.129707    0.000002    
71.734970    81.569382    -49.545677    -4.096511    2.612049    -11.715200    2.245271    -18.068510    7.204709    -1.926848    12.763927    7.103482    1.967218    -0.062490    -3.385923    3.060900    1.113782    -3.449601    0.889193    -2.352053    0.348084    -30.866640    -1.175582    -17.879684    -5.838426    -9.591358    -31.537237    -12.734301    4.751170    1.882120    34.579933    31.523973    -45.863937    -15.340424    -1.478307    23.273172    -0.000000    0.000000    -0.000000    -13.098669    17.560747    -4.686579    -12.478154    0.000001    -0.000006    -12.478144    -0.000004    0.000008    -11.624128    8.818353    -2.544937    -11.484849    -0.000002    0.000004    -11.484846    0.000002    0.000001    -11.121764    -8.833668    -3.375421    -10.988202    -0.000002    0.000003    -10.988188    0.000004    -0.000003    -11.018556    -17.688990    -6.678408    -10.491540    -0.000002    0.000002    -10.491543    0.000002    0.000002    -0.446449    0.749204    7.549934    35.824127    18.772217    16.741970    0.457696    -11.760287    2.244551    16.100412    3.174737    -27.156897    -40.001694    26.657297    47.786823    14.941490    -1.306721    -23.282866    -0.000000    0.000000    -0.000000    13.094500    17.561022    4.732155    12.474173    0.000001    0.000003    12.474174    0.000001    0.000002    11.203460    8.831222    2.631626    11.068967    -0.000000    0.000000    11.068970    0.000001    0.000002    10.492721    -8.851909    0.720099    10.366363    0.000000    -0.000000    10.366361    0.000001    -0.000001    10.150975    -17.735985    1.297208    9.663753    -0.000000    0.000001    9.663761    0.000001    -0.000000    -3.132535    -28.235781    8.900155    0.000002    14.753136    0.000000    -9.196618    24.663847    -5.004819    0.000002    7.904625    0.000003    10.139634    -0.995218    -20.715504    -0.000000    14.475835    -0.000004    -3.532877    -14.322370    -6.156178    0.000000    -2.050959    -0.000005    
71.789536    81.581169    -49.698822    -4.102798    2.361897    -11.006167    2.294591    -17.757313    7.484752    -2.021128    12.732777    7.395728    1.608484    -0.182243    -3.762627    3.112021    1.203049    -3.836095    0.707701    -2.297465    0.420624    -31.764921    -3.159865    -17.122503    -5.592005    -9.277139    -31.272127    -11.607770    4.363418    1.667782    34.597992    31.511202    -45.855366    -15.471366    -1.534601    23.269733    -0.000000    0.000000    -0.000000    -13.313352    17.546268    -4.426775    -12.683350    0.000002    -0.000003    -12.683348    -0.000002    0.000003    -11.699836    8.815989    -2.435798    -11.559699    -0.000002    -0.000000    -11.559698    0.000000    -0.000003    -11.131551    -8.833379    -3.265464    -10.997874    0.000000    -0.000005    -10.997869    -0.000002    0.000007    -10.960394    -17.692261    -6.437819    -10.436049    -0.000001    -0.000007    -10.436040    -0.000003    0.000010    -0.478165    0.540691    7.654378    35.154324    18.942827    17.825634    0.479162    -11.559030    2.389972    15.085120    3.148243    -27.422367    -39.856255    26.869715    47.524647    15.003781    -1.333529    -23.281443    -0.000000    0.000000    -0.000000    13.170311    17.555941    4.536541    12.546627    0.000001    0.000003    12.546620    -0.000005    0.000001    11.210224    8.831023    2.544216    11.075640    -0.000002    -0.000003    11.075651    -0.000001    0.000002    10.466215    -8.852654    0.677935    10.340158    -0.000000    0.000000    10.340155    0.000000    -0.000000    10.089030    -17.739187    1.202164    9.604664    -0.000000    0.000000    9.604666    0.000000    -0.000001    -3.274962    -28.387651    8.968644    0.000002    15.159024    0.000000    -10.204823    25.163612    -5.216285    0.000003    8.154696    0.000001    10.087602    -1.060737    -21.012945    -0.000000    14.739746    -0.000001    -3.614296    -14.355818    -6.669765    0.000000    -2.059500    -0.000002    
